<svg width="252" height="29" viewBox="0 0 252 29" fill="none" xmlns="http://www.w3.org/2000/svg">
<g id="AshutoshShrivastava">
<path d="M4.52557 23H0.571023L6.59659 5.54545H11.3523L17.3693 23H13.4148L9.04261 9.53409H8.90625L4.52557 23ZM4.27841 16.1392H13.6193V19.0199H4.27841V16.1392ZM29.9893 13.642L26.6655 13.8466C26.6087 13.5625 26.4865 13.3068 26.299 13.0795C26.1115 12.8466 25.8643 12.6619 25.5575 12.5256C25.2564 12.3835 24.8956 12.3125 24.4751 12.3125C23.9126 12.3125 23.4382 12.4318 23.0518 12.6705C22.6655 12.9034 22.4723 13.2159 22.4723 13.608C22.4723 13.9205 22.5973 14.1847 22.8473 14.4006C23.0973 14.6165 23.5263 14.7898 24.1342 14.9205L26.5036 15.3977C27.7763 15.6591 28.7251 16.0795 29.3501 16.6591C29.9751 17.2386 30.2876 18 30.2876 18.9432C30.2876 19.8011 30.0348 20.554 29.5291 21.2017C29.0291 21.8494 28.3416 22.3551 27.4666 22.7188C26.5973 23.0767 25.5945 23.2557 24.4581 23.2557C22.7251 23.2557 21.3445 22.8949 20.3161 22.1733C19.2933 21.446 18.6939 20.4574 18.5178 19.2074L22.0888 19.0199C22.1967 19.5483 22.4581 19.9517 22.8729 20.2301C23.2876 20.5028 23.8189 20.6392 24.4666 20.6392C25.103 20.6392 25.6143 20.517 26.0007 20.2727C26.3928 20.0227 26.5916 19.7017 26.5973 19.3097C26.5916 18.9801 26.4524 18.7102 26.1797 18.5C25.907 18.2841 25.4865 18.1193 24.9183 18.0057L22.6513 17.554C21.3729 17.2983 20.4212 16.8551 19.7962 16.2244C19.1768 15.5937 18.8672 14.7898 18.8672 13.8125C18.8672 12.9716 19.0945 12.2472 19.549 11.6392C20.0092 11.0312 20.6541 10.5625 21.4837 10.233C22.3189 9.90341 23.2962 9.73864 24.4155 9.73864C26.0689 9.73864 27.37 10.0881 28.3189 10.7869C29.2734 11.4858 29.8303 12.4375 29.9893 13.642ZM36.2045 15.4318V23H32.5739V5.54545H36.1023V12.2188H36.2557C36.5511 11.446 37.0284 10.8409 37.6875 10.4034C38.3466 9.96023 39.1733 9.73864 40.1676 9.73864C41.0767 9.73864 41.8693 9.9375 42.5455 10.3352C43.2273 10.7273 43.7557 11.2926 44.1307 12.0312C44.5114 12.7642 44.6989 13.642 44.6932 14.6648V23H41.0625V15.3125C41.0682 14.5057 40.8636 13.8778 40.4489 13.429C40.0398 12.9801 39.4659 12.7557 38.7273 12.7557C38.233 12.7557 37.7955 12.8608 37.4148 13.071C37.0398 13.2812 36.7443 13.5881 36.5284 13.9915C36.3182 14.3892 36.2102 14.8693 36.2045 15.4318ZM55.9453 17.4261V9.90909H59.576V23H56.0902V20.6222H55.9538C55.6584 21.3892 55.1669 22.0057 54.4794 22.4716C53.7976 22.9375 52.9652 23.1705 51.9822 23.1705C51.1072 23.1705 50.3374 22.9716 49.6726 22.5739C49.0078 22.1761 48.4879 21.6108 48.1129 20.8778C47.7436 20.1449 47.5561 19.267 47.5504 18.2443V9.90909H51.1811V17.5966C51.1868 18.3693 51.3942 18.9801 51.8033 19.429C52.2124 19.8778 52.7607 20.1023 53.4482 20.1023C53.8857 20.1023 54.2947 20.0028 54.6754 19.804C55.0561 19.5994 55.3629 19.2983 55.5959 18.9006C55.8345 18.5028 55.951 18.0114 55.9453 17.4261ZM69.4432 9.90909V12.6364H61.5597V9.90909H69.4432ZM63.3494 6.77273H66.9801V18.9773C66.9801 19.3125 67.0313 19.5739 67.1335 19.7614C67.2358 19.9432 67.3778 20.071 67.5597 20.1449C67.7472 20.2187 67.9631 20.2557 68.2074 20.2557C68.3778 20.2557 68.5483 20.2415 68.7188 20.2131C68.8892 20.179 69.0199 20.1534 69.1108 20.1364L69.6818 22.8381C69.5 22.8949 69.2443 22.9602 68.9148 23.0341C68.5852 23.1136 68.1847 23.1619 67.7131 23.179C66.8381 23.2131 66.071 23.0966 65.4119 22.8295C64.7585 22.5625 64.25 22.1477 63.8864 21.5852C63.5227 21.0227 63.3438 20.3125 63.3494 19.4545V6.77273ZM77.5824 23.2557C76.2585 23.2557 75.1136 22.9744 74.1477 22.4119C73.1875 21.8437 72.446 21.054 71.9233 20.0426C71.4006 19.0256 71.1392 17.8466 71.1392 16.5057C71.1392 15.1534 71.4006 13.9716 71.9233 12.9602C72.446 11.9432 73.1875 11.1534 74.1477 10.5909C75.1136 10.0227 76.2585 9.73864 77.5824 9.73864C78.9062 9.73864 80.0483 10.0227 81.0085 10.5909C81.9744 11.1534 82.7188 11.9432 83.2415 12.9602C83.7642 13.9716 84.0256 15.1534 84.0256 16.5057C84.0256 17.8466 83.7642 19.0256 83.2415 20.0426C82.7188 21.054 81.9744 21.8437 81.0085 22.4119C80.0483 22.9744 78.9062 23.2557 77.5824 23.2557ZM77.5994 20.4432C78.2017 20.4432 78.7045 20.2727 79.108 19.9318C79.5114 19.5852 79.8153 19.1136 80.0199 18.517C80.2301 17.9205 80.3352 17.2415 80.3352 16.4801C80.3352 15.7188 80.2301 15.0398 80.0199 14.4432C79.8153 13.8466 79.5114 13.375 79.108 13.0284C78.7045 12.6818 78.2017 12.5085 77.5994 12.5085C76.9915 12.5085 76.4801 12.6818 76.0653 13.0284C75.6563 13.375 75.3466 13.8466 75.1364 14.4432C74.9318 15.0398 74.8295 15.7188 74.8295 16.4801C74.8295 17.2415 74.9318 17.9205 75.1364 18.517C75.3466 19.1136 75.6563 19.5852 76.0653 19.9318C76.4801 20.2727 76.9915 20.4432 77.5994 20.4432ZM97.2784 13.642L93.9545 13.8466C93.8977 13.5625 93.7756 13.3068 93.5881 13.0795C93.4006 12.8466 93.1534 12.6619 92.8466 12.5256C92.5455 12.3835 92.1847 12.3125 91.7642 12.3125C91.2017 12.3125 90.7273 12.4318 90.3409 12.6705C89.9545 12.9034 89.7614 13.2159 89.7614 13.608C89.7614 13.9205 89.8864 14.1847 90.1364 14.4006C90.3864 14.6165 90.8153 14.7898 91.4233 14.9205L93.7926 15.3977C95.0653 15.6591 96.0142 16.0795 96.6392 16.6591C97.2642 17.2386 97.5767 18 97.5767 18.9432C97.5767 19.8011 97.3239 20.554 96.8182 21.2017C96.3182 21.8494 95.6307 22.3551 94.7557 22.7188C93.8864 23.0767 92.8835 23.2557 91.7472 23.2557C90.0142 23.2557 88.6335 22.8949 87.6051 22.1733C86.5824 21.446 85.983 20.4574 85.8068 19.2074L89.3778 19.0199C89.4858 19.5483 89.7472 19.9517 90.1619 20.2301C90.5767 20.5028 91.108 20.6392 91.7557 20.6392C92.392 20.6392 92.9034 20.517 93.2898 20.2727C93.6818 20.0227 93.8807 19.7017 93.8864 19.3097C93.8807 18.9801 93.7415 18.7102 93.4688 18.5C93.196 18.2841 92.7756 18.1193 92.2074 18.0057L89.9403 17.554C88.6619 17.2983 87.7102 16.8551 87.0852 16.2244C86.4659 15.5937 86.1562 14.7898 86.1562 13.8125C86.1562 12.9716 86.3835 12.2472 86.8381 11.6392C87.2983 11.0312 87.9432 10.5625 88.7727 10.233C89.608 9.90341 90.5852 9.73864 91.7045 9.73864C93.358 9.73864 94.6591 10.0881 95.608 10.7869C96.5625 11.4858 97.1193 12.4375 97.2784 13.642ZM103.494 15.4318V23H99.8629V5.54545H103.391V12.2188H103.545C103.84 11.446 104.317 10.8409 104.977 10.4034C105.636 9.96023 106.462 9.73864 107.457 9.73864C108.366 9.73864 109.158 9.9375 109.835 10.3352C110.516 10.7273 111.045 11.2926 111.42 12.0312C111.8 12.7642 111.988 13.642 111.982 14.6648V23H108.352V15.3125C108.357 14.5057 108.153 13.8778 107.738 13.429C107.329 12.9801 106.755 12.7557 106.016 12.7557C105.522 12.7557 105.085 12.8608 104.704 13.071C104.329 13.2812 104.033 13.5881 103.817 13.9915C103.607 14.3892 103.499 14.8693 103.494 15.4318Z" fill="#102A42"/>
<path d="M124.376 10.5653C124.308 9.87784 124.016 9.34375 123.499 8.96307C122.982 8.58239 122.28 8.39204 121.393 8.39204C120.791 8.39204 120.283 8.47727 119.868 8.64773C119.453 8.8125 119.135 9.04261 118.913 9.33807C118.697 9.63352 118.589 9.96875 118.589 10.3438C118.578 10.6562 118.643 10.929 118.786 11.1619C118.933 11.3949 119.135 11.5966 119.391 11.767C119.646 11.9318 119.942 12.0767 120.277 12.2017C120.612 12.321 120.97 12.4233 121.351 12.5085L122.919 12.8835C123.68 13.054 124.379 13.2812 125.016 13.5653C125.652 13.8494 126.203 14.1989 126.669 14.6136C127.135 15.0284 127.496 15.517 127.751 16.0795C128.013 16.642 128.146 17.2869 128.152 18.0142C128.146 19.0824 127.874 20.0085 127.334 20.7926C126.8 21.571 126.027 22.1761 125.016 22.608C124.01 23.0341 122.797 23.2472 121.376 23.2472C119.967 23.2472 118.74 23.0312 117.695 22.5994C116.655 22.1676 115.842 21.5284 115.257 20.6818C114.678 19.8295 114.374 18.7756 114.345 17.5199H117.916C117.956 18.1051 118.124 18.5937 118.419 18.9858C118.72 19.3722 119.121 19.6648 119.621 19.8636C120.126 20.0568 120.697 20.1534 121.334 20.1534C121.959 20.1534 122.501 20.0625 122.962 19.8807C123.428 19.6989 123.788 19.446 124.044 19.1222C124.3 18.7983 124.428 18.4261 124.428 18.0057C124.428 17.6136 124.311 17.2841 124.078 17.017C123.851 16.75 123.516 16.5227 123.072 16.3352C122.635 16.1477 122.098 15.9773 121.462 15.8239L119.561 15.3466C118.089 14.9886 116.928 14.429 116.075 13.6676C115.223 12.9062 114.8 11.8807 114.805 10.5909C114.8 9.53409 115.081 8.6108 115.649 7.82102C116.223 7.03125 117.01 6.41477 118.01 5.97159C119.01 5.52841 120.146 5.30682 121.419 5.30682C122.714 5.30682 123.845 5.52841 124.811 5.97159C125.783 6.41477 126.538 7.03125 127.078 7.82102C127.618 8.6108 127.896 9.52557 127.913 10.5653H124.376ZM134.197 15.4318V23H130.566V5.54545H134.094V12.2188H134.248C134.543 11.446 135.021 10.8409 135.68 10.4034C136.339 9.96023 137.165 9.73864 138.16 9.73864C139.069 9.73864 139.862 9.9375 140.538 10.3352C141.219 10.7273 141.748 11.2926 142.123 12.0312C142.504 12.7642 142.691 13.642 142.685 14.6648V23H139.055V15.3125C139.06 14.5057 138.856 13.8778 138.441 13.429C138.032 12.9801 137.458 12.7557 136.719 12.7557C136.225 12.7557 135.788 12.8608 135.407 13.071C135.032 13.2812 134.737 13.5881 134.521 13.9915C134.31 14.3892 134.202 14.8693 134.197 15.4318ZM145.543 23V9.90909H149.062V12.1932H149.199C149.438 11.3807 149.838 10.767 150.401 10.3523C150.963 9.93182 151.611 9.72159 152.344 9.72159C152.526 9.72159 152.722 9.73295 152.932 9.75568C153.142 9.77841 153.327 9.80966 153.486 9.84943V13.071C153.315 13.0199 153.08 12.9744 152.778 12.9347C152.477 12.8949 152.202 12.875 151.952 12.875C151.418 12.875 150.94 12.9915 150.52 13.2244C150.105 13.4517 149.776 13.7699 149.531 14.179C149.293 14.5881 149.173 15.0597 149.173 15.5938V23H145.543ZM155.363 23V9.90909H158.994V23H155.363ZM157.187 8.22159C156.647 8.22159 156.184 8.04261 155.798 7.68466C155.417 7.32102 155.227 6.88636 155.227 6.38068C155.227 5.88068 155.417 5.4517 155.798 5.09375C156.184 4.73011 156.647 4.54829 157.187 4.54829C157.727 4.54829 158.187 4.73011 158.567 5.09375C158.954 5.4517 159.147 5.88068 159.147 6.38068C159.147 6.88636 158.954 7.32102 158.567 7.68466C158.187 8.04261 157.727 8.22159 157.187 8.22159ZM174.107 9.90909L169.53 23H165.439L160.862 9.90909H164.697L167.416 19.2756H167.553L170.263 9.90909H174.107ZM179.346 23.2472C178.511 23.2472 177.766 23.1023 177.113 22.8125C176.46 22.517 175.942 22.0824 175.562 21.5085C175.187 20.929 174.999 20.2074 174.999 19.3438C174.999 18.6165 175.133 18.0057 175.4 17.5114C175.667 17.017 176.031 16.6193 176.491 16.3182C176.951 16.017 177.474 15.7898 178.059 15.6364C178.65 15.483 179.269 15.375 179.917 15.3125C180.678 15.233 181.292 15.1591 181.758 15.0909C182.224 15.017 182.562 14.9091 182.772 14.767C182.982 14.625 183.087 14.4148 183.087 14.1364V14.0852C183.087 13.5455 182.917 13.1278 182.576 12.8324C182.241 12.5369 181.763 12.3892 181.144 12.3892C180.491 12.3892 179.971 12.5341 179.585 12.8239C179.198 13.108 178.942 13.4659 178.817 13.8977L175.46 13.625C175.63 12.8295 175.965 12.142 176.465 11.5625C176.965 10.9773 177.61 10.5284 178.4 10.2159C179.195 9.89773 180.116 9.73864 181.161 9.73864C181.888 9.73864 182.585 9.82386 183.249 9.99432C183.92 10.1648 184.513 10.429 185.031 10.7869C185.553 11.1449 185.965 11.6051 186.266 12.1676C186.567 12.7244 186.718 13.392 186.718 14.1705V23H183.275V21.1847H183.173C182.962 21.5938 182.681 21.9545 182.329 22.267C181.977 22.5739 181.553 22.8153 181.059 22.9915C180.565 23.1619 179.994 23.2472 179.346 23.2472ZM180.386 20.7415C180.92 20.7415 181.391 20.6364 181.8 20.4261C182.21 20.2102 182.531 19.9205 182.763 19.5568C182.996 19.1932 183.113 18.7812 183.113 18.321V16.9318C182.999 17.0057 182.843 17.0739 182.644 17.1364C182.451 17.1932 182.232 17.2472 181.988 17.2983C181.744 17.3437 181.499 17.3864 181.255 17.4261C181.011 17.4602 180.789 17.4915 180.59 17.5199C180.164 17.5824 179.792 17.6818 179.474 17.8182C179.156 17.9545 178.908 18.1392 178.732 18.3722C178.556 18.5994 178.468 18.8835 178.468 19.2244C178.468 19.7188 178.647 20.0966 179.005 20.358C179.369 20.6136 179.829 20.7415 180.386 20.7415ZM200.427 13.642L197.103 13.8466C197.046 13.5625 196.924 13.3068 196.737 13.0795C196.549 12.8466 196.302 12.6619 195.995 12.5256C195.694 12.3835 195.333 12.3125 194.913 12.3125C194.35 12.3125 193.876 12.4318 193.489 12.6705C193.103 12.9034 192.91 13.2159 192.91 13.608C192.91 13.9205 193.035 14.1847 193.285 14.4006C193.535 14.6165 193.964 14.7898 194.572 14.9205L196.941 15.3977C198.214 15.6591 199.163 16.0795 199.788 16.6591C200.413 17.2386 200.725 18 200.725 18.9432C200.725 19.8011 200.472 20.554 199.967 21.2017C199.467 21.8494 198.779 22.3551 197.904 22.7188C197.035 23.0767 196.032 23.2557 194.896 23.2557C193.163 23.2557 191.782 22.8949 190.754 22.1733C189.731 21.446 189.131 20.4574 188.955 19.2074L192.526 19.0199C192.634 19.5483 192.896 19.9517 193.31 20.2301C193.725 20.5028 194.256 20.6392 194.904 20.6392C195.54 20.6392 196.052 20.517 196.438 20.2727C196.83 20.0227 197.029 19.7017 197.035 19.3097C197.029 18.9801 196.89 18.7102 196.617 18.5C196.344 18.2841 195.924 18.1193 195.356 18.0057L193.089 17.554C191.81 17.2983 190.859 16.8551 190.234 16.2244C189.614 15.5937 189.305 14.7898 189.305 13.8125C189.305 12.9716 189.532 12.2472 189.987 11.6392C190.447 11.0312 191.092 10.5625 191.921 10.233C192.756 9.90341 193.734 9.73864 194.853 9.73864C196.506 9.73864 197.808 10.0881 198.756 10.7869C199.711 11.4858 200.268 12.4375 200.427 13.642ZM209.974 9.90909V12.6364H202.091V9.90909H209.974ZM203.881 6.77273H207.511V18.9773C207.511 19.3125 207.563 19.5739 207.665 19.7614C207.767 19.9432 207.909 20.071 208.091 20.1449C208.278 20.2187 208.494 20.2557 208.739 20.2557C208.909 20.2557 209.08 20.2415 209.25 20.2131C209.42 20.179 209.551 20.1534 209.642 20.1364L210.213 22.8381C210.031 22.8949 209.776 22.9602 209.446 23.0341C209.116 23.1136 208.716 23.1619 208.244 23.179C207.369 23.2131 206.602 23.0966 205.943 22.8295C205.29 22.5625 204.781 22.1477 204.418 21.5852C204.054 21.0227 203.875 20.3125 203.881 19.4545V6.77273ZM216.072 23.2472C215.237 23.2472 214.493 23.1023 213.839 22.8125C213.186 22.517 212.669 22.0824 212.288 21.5085C211.913 20.929 211.726 20.2074 211.726 19.3438C211.726 18.6165 211.859 18.0057 212.126 17.5114C212.393 17.017 212.757 16.6193 213.217 16.3182C213.678 16.017 214.2 15.7898 214.786 15.6364C215.376 15.483 215.996 15.375 216.643 15.3125C217.405 15.233 218.018 15.1591 218.484 15.0909C218.95 15.017 219.288 14.9091 219.499 14.767C219.709 14.625 219.814 14.4148 219.814 14.1364V14.0852C219.814 13.5455 219.643 13.1278 219.303 12.8324C218.967 12.5369 218.49 12.3892 217.871 12.3892C217.217 12.3892 216.697 12.5341 216.311 12.8239C215.925 13.108 215.669 13.4659 215.544 13.8977L212.186 13.625C212.357 12.8295 212.692 12.142 213.192 11.5625C213.692 10.9773 214.337 10.5284 215.126 10.2159C215.922 9.89773 216.842 9.73864 217.888 9.73864C218.615 9.73864 219.311 9.82386 219.976 9.99432C220.646 10.1648 221.24 10.429 221.757 10.7869C222.28 11.1449 222.692 11.6051 222.993 12.1676C223.294 12.7244 223.445 13.392 223.445 14.1705V23H220.001V21.1847H219.899C219.689 21.5938 219.408 21.9545 219.055 22.267C218.703 22.5739 218.28 22.8153 217.786 22.9915C217.291 23.1619 216.72 23.2472 216.072 23.2472ZM217.112 20.7415C217.646 20.7415 218.118 20.6364 218.527 20.4261C218.936 20.2102 219.257 19.9205 219.49 19.5568C219.723 19.1932 219.839 18.7812 219.839 18.321V16.9318C219.726 17.0057 219.57 17.0739 219.371 17.1364C219.178 17.1932 218.959 17.2472 218.714 17.2983C218.47 17.3437 218.226 17.3864 217.982 17.4261C217.737 17.4602 217.516 17.4915 217.317 17.5199C216.891 17.5824 216.518 17.6818 216.2 17.8182C215.882 17.9545 215.635 18.1392 215.459 18.3722C215.283 18.5994 215.195 18.8835 215.195 19.2244C215.195 19.7188 215.374 20.0966 215.732 20.358C216.095 20.6136 216.555 20.7415 217.112 20.7415ZM237.997 9.90909L233.42 23H229.33L224.753 9.90909H228.588L231.307 19.2756H231.443L234.153 9.90909H237.997ZM243.237 23.2472C242.401 23.2472 241.657 23.1023 241.004 22.8125C240.35 22.517 239.833 22.0824 239.452 21.5085C239.077 20.929 238.89 20.2074 238.89 19.3438C238.89 18.6165 239.023 18.0057 239.29 17.5114C239.558 17.017 239.921 16.6193 240.381 16.3182C240.842 16.017 241.364 15.7898 241.95 15.6364C242.54 15.483 243.16 15.375 243.808 15.3125C244.569 15.233 245.183 15.1591 245.648 15.0909C246.114 15.017 246.452 14.9091 246.663 14.767C246.873 14.625 246.978 14.4148 246.978 14.1364V14.0852C246.978 13.5455 246.808 13.1278 246.467 12.8324C246.131 12.5369 245.654 12.3892 245.035 12.3892C244.381 12.3892 243.862 12.5341 243.475 12.8239C243.089 13.108 242.833 13.4659 242.708 13.8977L239.35 13.625C239.521 12.8295 239.856 12.142 240.356 11.5625C240.856 10.9773 241.501 10.5284 242.29 10.2159C243.086 9.89773 244.006 9.73864 245.052 9.73864C245.779 9.73864 246.475 9.82386 247.14 9.99432C247.81 10.1648 248.404 10.429 248.921 10.7869C249.444 11.1449 249.856 11.6051 250.157 12.1676C250.458 12.7244 250.609 13.392 250.609 14.1705V23H247.165V21.1847H247.063C246.853 21.5938 246.572 21.9545 246.219 22.267C245.867 22.5739 245.444 22.8153 244.95 22.9915C244.455 23.1619 243.884 23.2472 243.237 23.2472ZM244.276 20.7415C244.81 20.7415 245.282 20.6364 245.691 20.4261C246.1 20.2102 246.421 19.9205 246.654 19.5568C246.887 19.1932 247.004 18.7812 247.004 18.321V16.9318C246.89 17.0057 246.734 17.0739 246.535 17.1364C246.342 17.1932 246.123 17.2472 245.879 17.2983C245.634 17.3437 245.39 17.3864 245.146 17.4261C244.901 17.4602 244.68 17.4915 244.481 17.5199C244.055 17.5824 243.683 17.6818 243.364 17.8182C243.046 17.9545 242.799 18.1392 242.623 18.3722C242.447 18.5994 242.359 18.8835 242.359 19.2244C242.359 19.7188 242.538 20.0966 242.896 20.358C243.259 20.6136 243.719 20.7415 244.276 20.7415Z" fill="#6E5DCF"/>
</g>
</svg>
